<svg width="32" height="32" viewBox="0 0 32 32" fill="none" xmlns="http://www.w3.org/2000/svg">
<g id="Flag Pack" clip-path="url(#clip0_190_506)">
<g id="Group 2">
<path id="Vector" d="M31.9999 12.5056H0V6.06884C0 5.76415 0.247062 5.51709 0.551749 5.51709H31.4483C31.7529 5.51709 32 5.76415 32 6.06884L31.9999 12.5056Z" fill="#82AFFF"/>
<path id="Vector_2" d="M31.4482 26.4826H0.551749C0.247062 26.4826 0 26.2356 0 25.9309V19.4941H31.9999V25.9309C31.9999 26.2356 31.7529 26.4826 31.4482 26.4826Z" fill="#73AF00"/>
<path id="Vector_3" d="M31.9999 12.5059H0V19.494H31.9999V12.5059Z" fill="#F5F5F5"/>
<g id="Group">
<path id="Vector_4" d="M31.9999 11.8853H0V12.7566H31.9999V11.8853Z" fill="#FF4B55"/>
<path id="Vector_5" d="M31.9999 19.2432H0V20.1145H31.9999V19.2432Z" fill="#FF4B55"/>
</g>
<g id="Group_2">
<path id="Vector_6" d="M7.09291 10.7544C5.96342 10.7544 5.04786 9.84099 5.04786 8.71555C5.04786 7.58599 5.96335 6.66849 7.09291 6.66849C7.09729 6.66849 7.10154 6.66849 7.10579 6.66856C7.17229 6.66943 7.1956 6.58112 7.13698 6.54968C6.78916 6.36324 6.39223 6.25774 5.97023 6.26081C4.61873 6.27043 3.52092 7.39037 3.5353 8.74187C3.54942 10.0794 4.64292 11.1621 5.98792 11.1621C6.4041 11.1621 6.79548 11.0568 7.13898 10.8729C7.19741 10.8416 7.17379 10.7533 7.10754 10.7542C7.10254 10.7544 7.09773 10.7544 7.09291 10.7544Z" fill="#F5F5F5"/>
<path id="Vector_7" d="M8.69406 10.1906L8.60275 10.4645L8.31406 10.4667C8.27669 10.467 8.26119 10.5147 8.29125 10.5369L8.5235 10.7084L8.43638 10.9836C8.42513 11.0193 8.46569 11.0488 8.49613 11.027L8.731 10.8591L8.96587 11.027C8.99631 11.0488 9.03681 11.0193 9.02562 10.9836L8.9385 10.7084L9.17069 10.5369C9.20075 10.5147 9.18525 10.467 9.14787 10.4667L8.85919 10.4645L8.76788 10.1906C8.75606 10.1552 8.70594 10.1552 8.69406 10.1906Z" fill="#F5F5F5"/>
<path id="Vector_8" d="M10.7273 10.1906L10.636 10.4645L10.3473 10.4667C10.3099 10.467 10.2944 10.5147 10.3245 10.5369L10.5566 10.7084L10.4695 10.9836C10.4583 11.0193 10.4988 11.0488 10.5293 11.027L10.7641 10.8591L10.999 11.027C11.0295 11.0488 11.07 11.0193 11.0588 10.9836L10.9716 10.7084L11.2038 10.5369C11.2339 10.5147 11.2184 10.467 11.181 10.4667L10.8923 10.4645L10.801 10.1906C10.7892 10.1552 10.739 10.1552 10.7273 10.1906Z" fill="#F5F5F5"/>
<path id="Vector_9" d="M12.7624 10.1906L12.6711 10.4645L12.3824 10.4667C12.345 10.467 12.3295 10.5147 12.3596 10.5369L12.5919 10.7084L12.5047 10.9836C12.4935 11.0193 12.534 11.0488 12.5645 11.027L12.7994 10.8591L13.0342 11.027C13.0647 11.0488 13.1052 11.0193 13.094 10.9836L13.0069 10.7084L13.239 10.5369C13.2691 10.5147 13.2536 10.467 13.2162 10.4667L12.9275 10.4645L12.8362 10.1906C12.8244 10.1552 12.7742 10.1552 12.7624 10.1906Z" fill="#F5F5F5"/>
<path id="Vector_10" d="M14.7956 10.1906L14.7043 10.4645L14.4156 10.4667C14.3783 10.467 14.3628 10.5147 14.3928 10.5369L14.625 10.7084L14.5379 10.9836C14.5266 11.0193 14.5672 11.0488 14.5976 11.027L14.8325 10.8591L15.0674 11.027C15.0978 11.0488 15.1383 11.0193 15.1271 10.9836L15.04 10.7084L15.2722 10.5369C15.3022 10.5147 15.2867 10.467 15.2494 10.4667L14.9607 10.4645L14.8694 10.1906C14.8576 10.1552 14.8074 10.1552 14.7956 10.1906Z" fill="#F5F5F5"/>
<path id="Vector_11" d="M16.8288 10.1906L16.7375 10.4645L16.4488 10.4667C16.4115 10.467 16.396 10.5147 16.426 10.5369L16.6583 10.7084L16.5711 10.9836C16.5599 11.0193 16.6005 11.0488 16.6309 11.027L16.8658 10.8591L17.1006 11.027C17.1311 11.0488 17.1716 11.0193 17.1604 10.9836L17.0733 10.7084L17.3055 10.5369C17.3356 10.5147 17.3201 10.467 17.2827 10.4667L16.994 10.4645L16.9027 10.1906C16.8908 10.1552 16.8406 10.1552 16.8288 10.1906Z" fill="#F5F5F5"/>
<path id="Vector_12" d="M10.7273 8.2923L10.636 8.56617L10.3473 8.56836C10.3099 8.56861 10.2944 8.61636 10.3245 8.63855L10.5566 8.81005L10.4695 9.0853C10.4583 9.12092 10.4988 9.15042 10.5293 9.12867L10.7641 8.9608L10.999 9.12867C11.0295 9.15042 11.07 9.12092 11.0588 9.0853L10.9716 8.81005L11.2038 8.63855C11.2339 8.61636 11.2184 8.56861 11.181 8.56836L10.8923 8.56617L10.801 8.2923C10.7892 8.25673 10.739 8.25673 10.7273 8.2923Z" fill="#F5F5F5"/>
<path id="Vector_13" d="M12.7624 8.2923L12.6711 8.56617L12.3824 8.56836C12.345 8.56861 12.3295 8.61636 12.3596 8.63855L12.5919 8.81005L12.5047 9.0853C12.4935 9.12092 12.534 9.15042 12.5645 9.12867L12.7994 8.9608L13.0342 9.12867C13.0647 9.15042 13.1052 9.12092 13.094 9.0853L13.0069 8.81005L13.239 8.63855C13.2691 8.61636 13.2536 8.56861 13.2162 8.56836L12.9275 8.56617L12.8362 8.2923C12.8244 8.25673 12.7742 8.25673 12.7624 8.2923Z" fill="#F5F5F5"/>
<path id="Vector_14" d="M14.7956 8.2923L14.7043 8.56617L14.4156 8.56836C14.3783 8.56861 14.3628 8.61636 14.3928 8.63855L14.625 8.81005L14.5379 9.0853C14.5266 9.12092 14.5672 9.15042 14.5976 9.12867L14.8325 8.9608L15.0674 9.12867C15.0978 9.15042 15.1383 9.12092 15.1271 9.0853L15.04 8.81005L15.2722 8.63855C15.3022 8.61636 15.2867 8.56861 15.2494 8.56836L14.9607 8.56617L14.8694 8.2923C14.8576 8.25673 14.8074 8.25673 14.7956 8.2923Z" fill="#F5F5F5"/>
<path id="Vector_15" d="M16.8288 8.2923L16.7375 8.56617L16.4488 8.56836C16.4115 8.56861 16.396 8.61636 16.426 8.63855L16.6583 8.81005L16.5711 9.0853C16.5599 9.12092 16.6005 9.15042 16.6309 9.12867L16.8658 8.9608L17.1006 9.12867C17.1311 9.15042 17.1716 9.12092 17.1604 9.0853L17.0733 8.81005L17.3055 8.63855C17.3356 8.61636 17.3201 8.56861 17.2827 8.56836L16.994 8.56617L16.9027 8.2923C16.8908 8.25673 16.8406 8.25673 16.8288 8.2923Z" fill="#F5F5F5"/>
<path id="Vector_16" d="M12.7624 10.1906L12.6711 10.4645L12.3824 10.4667C12.345 10.467 12.3295 10.5147 12.3596 10.5369L12.5919 10.7084L12.5047 10.9836C12.4935 11.0193 12.534 11.0488 12.5645 11.027L12.7994 10.8591L13.0342 11.027C13.0647 11.0488 13.1052 11.0193 13.094 10.9836L13.0069 10.7084L13.239 10.5369C13.2691 10.5147 13.2536 10.467 13.2162 10.4667L12.9275 10.4645L12.8362 10.1906C12.8244 10.1552 12.7742 10.1552 12.7624 10.1906Z" fill="#F5F5F5"/>
<path id="Vector_17" d="M12.7624 6.39425L12.6711 6.66813L12.3824 6.67032C12.345 6.67057 12.3295 6.71832 12.3596 6.7405L12.5919 6.912L12.5047 7.18725C12.4935 7.22288 12.534 7.25238 12.5645 7.23063L12.7994 7.06275L13.0342 7.23063C13.0647 7.25238 13.1052 7.22288 13.094 7.18725L13.0069 6.912L13.239 6.7405C13.2691 6.71832 13.2536 6.67057 13.2162 6.67032L12.9275 6.66813L12.8362 6.39425C12.8244 6.35882 12.7742 6.35882 12.7624 6.39425Z" fill="#F5F5F5"/>
<path id="Vector_18" d="M14.7956 10.1906L14.7043 10.4645L14.4156 10.4667C14.3783 10.467 14.3628 10.5147 14.3928 10.5369L14.625 10.7084L14.5379 10.9836C14.5266 11.0193 14.5672 11.0488 14.5976 11.027L14.8325 10.8591L15.0674 11.027C15.0978 11.0488 15.1383 11.0193 15.1271 10.9836L15.04 10.7084L15.2722 10.5369C15.3022 10.5147 15.2867 10.467 15.2494 10.4667L14.9607 10.4645L14.8694 10.1906C14.8576 10.1552 14.8074 10.1552 14.7956 10.1906Z" fill="#F5F5F5"/>
<path id="Vector_19" d="M16.8288 10.1906L16.7375 10.4645L16.4488 10.4667C16.4115 10.467 16.396 10.5147 16.426 10.5369L16.6583 10.7084L16.5711 10.9836C16.5599 11.0193 16.6005 11.0488 16.6309 11.027L16.8658 10.8591L17.1006 11.027C17.1311 11.0488 17.1716 11.0193 17.1604 10.9836L17.0733 10.7084L17.3055 10.5369C17.3356 10.5147 17.3201 10.467 17.2827 10.4667L16.994 10.4645L16.9027 10.1906C16.8908 10.1552 16.8406 10.1552 16.8288 10.1906Z" fill="#F5F5F5"/>
<path id="Vector_20" d="M14.7956 6.39425L14.7043 6.66813L14.4156 6.67032C14.3783 6.67057 14.3628 6.71832 14.3928 6.7405L14.625 6.912L14.5379 7.18725C14.5266 7.22288 14.5672 7.25238 14.5976 7.23063L14.8325 7.06275L15.0674 7.23063C15.0978 7.25238 15.1383 7.22288 15.1271 7.18725L15.04 6.912L15.2722 6.7405C15.3022 6.71832 15.2867 6.67057 15.2494 6.67032L14.9607 6.66813L14.8694 6.39425C14.8576 6.35882 14.8074 6.35882 14.7956 6.39425Z" fill="#F5F5F5"/>
<path id="Vector_21" d="M16.8288 6.39425L16.7375 6.66813L16.4488 6.67032C16.4115 6.67057 16.396 6.71832 16.426 6.7405L16.6583 6.912L16.5711 7.18725C16.5599 7.22288 16.6005 7.25238 16.6309 7.23063L16.8658 7.06275L17.1006 7.23063C17.1311 7.25238 17.1716 7.22288 17.1604 7.18725L17.0733 6.912L17.3055 6.7405C17.3356 6.71832 17.3201 6.67057 17.2827 6.67032L16.994 6.66813L16.9027 6.39425C16.8908 6.35882 16.8406 6.35882 16.8288 6.39425Z" fill="#F5F5F5"/>
</g>
</g>
</g>
<defs>
<clipPath id="clip0_190_506">
<rect width="32" height="32" fill="white"/>
</clipPath>
</defs>
</svg>
