<svg width="40" height="40" viewBox="0 0 40 40" fill="none" xmlns="http://www.w3.org/2000/svg">
<mask id="mask0_214_844" style="mask-type:alpha" maskUnits="userSpaceOnUse" x="0" y="0" width="40" height="40">
<path d="M0 20C0 8.95431 8.95431 0 20 0C31.0457 0 40 8.95431 40 20C40 31.0457 31.0457 40 20 40C8.95431 40 0 31.0457 0 20Z" fill="white"/>
</mask>
<g mask="url(#mask0_214_844)">
<path d="M0 20C0 8.95431 8.95431 0 20 0C31.0457 0 40 8.95431 40 20C40 31.0457 31.0457 40 20 40C8.95431 40 0 31.0457 0 20Z" fill="white"/>
<path fill-rule="evenodd" clip-rule="evenodd" d="M20.001 9.3335C17.1041 9.3335 16.7405 9.34616 15.6027 9.39794C14.4672 9.44994 13.6921 9.62972 13.0138 9.8935C12.3123 10.1659 11.7171 10.5304 11.1243 11.1235C10.5309 11.7164 10.1665 12.3115 9.89313 13.0129C9.62868 13.6913 9.44868 14.4667 9.39757 15.6018C9.34668 16.7396 9.33334 17.1034 9.33334 20.0003C9.33334 22.8972 9.34623 23.2596 9.39779 24.3974C9.45001 25.533 9.62979 26.3081 9.89335 26.9863C10.166 27.6879 10.5305 28.283 11.1236 28.8759C11.7163 29.4693 12.3114 29.8346 13.0125 30.107C13.6912 30.3708 14.4665 30.5506 15.6019 30.6026C16.7396 30.6544 17.103 30.667 19.9997 30.667C22.8968 30.667 23.2593 30.6544 24.3971 30.6026C25.5326 30.5506 26.3086 30.3708 26.9873 30.107C27.6886 29.8346 28.2829 29.4693 28.8755 28.8759C29.4689 28.283 29.8333 27.6879 30.1067 26.9866C30.3689 26.3081 30.5489 25.5328 30.6022 24.3977C30.6533 23.2599 30.6667 22.8972 30.6667 20.0003C30.6667 17.1034 30.6533 16.7398 30.6022 15.602C30.5489 14.4664 30.3689 13.6913 30.1067 13.0131C29.8333 12.3115 29.4689 11.7164 28.8755 11.1235C28.2822 10.5302 27.6889 10.1657 26.9866 9.8935C26.3066 9.62972 25.5311 9.44994 24.3955 9.39794C23.2577 9.34616 22.8955 9.3335 19.9977 9.3335H20.001ZM19.0441 11.2557C19.3281 11.2553 19.645 11.2557 20.001 11.2557C22.849 11.2557 23.1866 11.266 24.3113 11.3171C25.3513 11.3646 25.9157 11.5384 26.2917 11.6844C26.7895 11.8777 27.1444 12.1089 27.5175 12.4822C27.8909 12.8555 28.122 13.2111 28.3158 13.7089C28.4618 14.0844 28.6358 14.6489 28.6831 15.6889C28.7342 16.8134 28.7453 17.1511 28.7453 19.9978C28.7453 22.8445 28.7342 23.1823 28.6831 24.3068C28.6355 25.3468 28.4618 25.9112 28.3158 26.2868C28.1224 26.7846 27.8909 27.139 27.5175 27.5121C27.1442 27.8855 26.7898 28.1166 26.2917 28.3099C25.9162 28.4566 25.3513 28.6299 24.3113 28.6775C23.1868 28.7286 22.849 28.7397 20.001 28.7397C17.1528 28.7397 16.8152 28.7286 15.6907 28.6775C14.6507 28.6295 14.0863 28.4557 13.7101 28.3097C13.2123 28.1164 12.8567 27.8852 12.4834 27.5119C12.11 27.1386 11.8789 26.7839 11.6851 26.2859C11.5391 25.9103 11.3651 25.3459 11.3178 24.3059C11.2667 23.1814 11.2565 22.8436 11.2565 19.9952C11.2565 17.1467 11.2667 16.8107 11.3178 15.6862C11.3654 14.6462 11.5391 14.0818 11.6851 13.7058C11.8785 13.208 12.11 12.8524 12.4834 12.4791C12.8567 12.1057 13.2123 11.8746 13.7101 11.6809C14.0861 11.5342 14.6507 11.3609 15.6907 11.3131C16.6748 11.2686 17.0561 11.2553 19.0441 11.2531V11.2557ZM25.6948 13.0269C24.9882 13.0269 24.4148 13.5995 24.4148 14.3064C24.4148 15.0131 24.9882 15.5864 25.6948 15.5864C26.4015 15.5864 26.9749 15.0131 26.9749 14.3064C26.9749 13.5998 26.4015 13.0264 25.6948 13.0264V13.0269ZM20.001 14.5224C16.9759 14.5224 14.5232 16.9751 14.5232 20.0003C14.5232 23.0254 16.9759 25.477 20.001 25.477C23.0262 25.477 25.478 23.0254 25.478 20.0003C25.478 16.9751 23.0259 14.5224 20.0008 14.5224H20.001ZM20.001 16.4447C21.9646 16.4447 23.5566 18.0365 23.5566 20.0003C23.5566 21.9638 21.9646 23.5559 20.001 23.5559C18.0372 23.5559 16.4454 21.9638 16.4454 20.0003C16.4454 18.0365 18.0372 16.4447 20.001 16.4447Z" fill="#002C47"/>
</g>
</svg>
