<svg width="40" height="40" viewBox="0 0 40 40" fill="none" xmlns="http://www.w3.org/2000/svg">
<path d="M20 40C31.0457 40 40 31.0457 40 20C40 8.95431 31.0457 0 20 0C8.95431 0 0 8.95431 0 20C0 31.0457 8.95431 40 20 40Z" fill="white"/>
<path fill-rule="evenodd" clip-rule="evenodd" d="M16.6733 24.0686L25.9474 15.6994C26.3545 15.3382 25.8586 15.162 25.3182 15.4897L13.8727 22.7105L8.92891 21.1674C7.86126 20.8405 7.85359 20.1069 9.16861 19.5794L28.4336 12.1509C29.3135 11.7515 30.1627 12.3623 29.8268 13.709L26.546 29.1695C26.3169 30.2681 25.6531 30.5309 24.7333 30.0234L19.7356 26.331L17.3333 28.6669C17.0543 28.9382 16.8333 29.1669 16.3333 29.1669L16.6736 24.0688L16.6733 24.0686Z" fill="#002C47"/>
</svg>
