<svg width="40" height="40" viewBox="0 0 40 40" fill="none" xmlns="http://www.w3.org/2000/svg">
<mask id="mask0_214_855" style="mask-type:alpha" maskUnits="userSpaceOnUse" x="0" y="0" width="40" height="40">
<path d="M0 20C0 8.95431 8.95431 0 20 0C31.0457 0 40 8.95431 40 20C40 31.0457 31.0457 40 20 40C8.95431 40 0 31.0457 0 20Z" fill="white"/>
</mask>
<g mask="url(#mask0_214_855)">
<path d="M0 20C0 8.95431 8.95431 0 20 0C31.0457 0 40 8.95431 40 20C40 31.0457 31.0457 40 20 40C8.95431 40 0 31.0457 0 20Z" fill="white"/>
<path d="M29.6614 20.769L14.8505 27.9405C14.4559 28.1315 14 27.8394 14 27.3956V12.6044C14 12.1543 14.4678 11.8625 14.8633 12.066L29.6742 19.6857C30.1145 19.9122 30.1069 20.5533 29.6614 20.769Z" fill="#002C47"/>
</g>
</svg>
