<svg width="134" height="44" viewBox="0 0 134 44" fill="none" xmlns="http://www.w3.org/2000/svg">
<path d="M17.5451 1.54545V43H10.0355V8.85263H9.79261L0.096946 15.0465V8.16442L10.3999 1.54545H17.5451ZM43.3935 43.7894C40.0604 43.7894 37.1996 42.946 34.8111 41.2592C32.4361 39.5589 30.6076 37.1097 29.3256 33.9116C28.0572 30.6999 27.4229 26.8338 27.4229 22.3132C27.4364 17.7926 28.0774 13.9467 29.3459 10.7756C30.6278 7.59091 32.4563 5.16193 34.8313 3.48864C37.2198 1.81534 40.0739 0.978692 43.3935 0.978692C46.7131 0.978692 49.5671 1.81534 51.9556 3.48864C54.3441 5.16193 56.1726 7.59091 57.4411 10.7756C58.723 13.9602 59.364 17.8061 59.364 22.3132C59.364 26.8473 58.723 30.7202 57.4411 33.9318C56.1726 37.13 54.3441 39.5724 51.9556 41.2592C49.5806 42.946 46.7266 43.7894 43.3935 43.7894ZM43.3935 37.4538C45.9844 37.4538 48.0288 36.1786 49.5266 33.6282C51.038 31.0643 51.7937 27.2926 51.7937 22.3132C51.7937 19.0206 51.4496 16.2543 50.7614 14.0142C50.0732 11.7741 49.1016 10.0874 47.8466 8.95384C46.5916 7.80682 45.1072 7.23331 43.3935 7.23331C40.8161 7.23331 38.7784 8.51527 37.2805 11.0792C35.7827 13.6296 35.027 17.3743 35.0135 22.3132C35 25.6193 35.3306 28.3991 36.0053 30.6527C36.6935 32.9062 37.6651 34.6065 38.9201 35.7536C40.1751 36.8871 41.6662 37.4538 43.3935 37.4538ZM81.412 43.7894C78.0789 43.7894 75.2181 42.946 72.8296 41.2592C70.4546 39.5589 68.6262 37.1097 67.3442 33.9116C66.0757 30.6999 65.4415 26.8338 65.4415 22.3132C65.455 17.7926 66.096 13.9467 67.3644 10.7756C68.6464 7.59091 70.4749 5.16193 72.8499 3.48864C75.2384 1.81534 78.0924 0.978692 81.412 0.978692C84.7316 0.978692 87.5857 1.81534 89.9742 3.48864C92.3627 5.16193 94.1911 7.59091 95.4596 10.7756C96.7416 13.9602 97.3825 17.8061 97.3825 22.3132C97.3825 26.8473 96.7416 30.7202 95.4596 33.9318C94.1911 37.13 92.3627 39.5724 89.9742 41.2592C87.5992 42.946 84.7451 43.7894 81.412 43.7894ZM81.412 37.4538C84.0029 37.4538 86.0473 36.1786 87.5452 33.6282C89.0566 31.0643 89.8122 27.2926 89.8122 22.3132C89.8122 19.0206 89.4681 16.2543 88.7799 14.0142C88.0917 11.7741 87.1201 10.0874 85.8651 8.95384C84.6102 7.80682 83.1258 7.23331 81.412 7.23331C78.8346 7.23331 76.797 8.51527 75.2991 11.0792C73.8012 13.6296 73.0455 17.3743 73.032 22.3132C73.0186 25.6193 73.3492 28.3991 74.0239 30.6527C74.7121 32.9062 75.6837 34.6065 76.9387 35.7536C78.1936 36.8871 79.6847 37.4538 81.412 37.4538ZM116.415 36.3608V8.34659H122.77V36.3608H116.415ZM105.585 25.5316V19.1758H133.6V25.5316H105.585Z" fill="url(#paint0_linear_21_92)"/>
<defs>
<linearGradient id="paint0_linear_21_92" x1="-3" y1="-18" x2="132.052" y2="72.3825" gradientUnits="userSpaceOnUse">
<stop stop-color="#D2B37A"/>
<stop offset="1" stop-color="#D2B37A"/>
</linearGradient>
</defs>
</svg>
