<svg width="106" height="44" viewBox="0 0 106 44" fill="none" xmlns="http://www.w3.org/2000/svg">
<path d="M16.4197 43.5668C13.4105 43.5668 10.7386 43.0607 8.40412 42.0487C6.0831 41.0366 4.26136 39.6534 2.93892 37.8991C1.62997 36.1314 0.982244 34.1275 0.995739 31.8874C0.982244 30.1467 1.36009 28.5476 2.12926 27.0902C2.89844 25.6328 3.9375 24.4183 5.24645 23.4467C6.56889 22.4616 8.03977 21.8342 9.65909 21.5643V21.2809C7.52699 20.8086 5.79972 19.7223 4.47727 18.022C3.16832 16.3082 2.5206 14.3313 2.53409 12.0913C2.5206 9.95916 3.11435 8.05646 4.31534 6.38317C5.51634 4.70987 7.16264 3.39417 9.25426 2.43608C11.3459 1.46449 13.7344 0.978692 16.4197 0.978692C19.0781 0.978692 21.4464 1.46449 23.5245 2.43608C25.6161 3.39417 27.2624 4.70987 28.4634 6.38317C29.6779 8.05646 30.2852 9.95916 30.2852 12.0913C30.2852 14.3313 29.6172 16.3082 28.2812 18.022C26.9588 19.7223 25.2518 20.8086 23.1602 21.2809V21.5643C24.7795 21.8342 26.2369 22.4616 27.5323 23.4467C28.8413 24.4183 29.8803 25.6328 30.6495 27.0902C31.4322 28.5476 31.8235 30.1467 31.8235 31.8874C31.8235 34.1275 31.1623 36.1314 29.8398 37.8991C28.5174 39.6534 26.6957 41.0366 24.3746 42.0487C22.0671 43.0607 19.4155 43.5668 16.4197 43.5668ZM16.4197 37.7777C17.9716 37.7777 19.321 37.5146 20.468 36.9883C21.6151 36.4485 22.5057 35.6928 23.1399 34.7212C23.7741 33.7496 24.098 32.6296 24.1115 31.3612C24.098 30.0387 23.7539 28.8714 23.0792 27.8594C22.418 26.8338 21.5071 26.0309 20.3466 25.4506C19.1996 24.8704 17.8906 24.5803 16.4197 24.5803C14.9354 24.5803 13.6129 24.8704 12.4524 25.4506C11.2919 26.0309 10.3743 26.8338 9.69957 27.8594C9.03835 28.8714 8.71449 30.0387 8.72798 31.3612C8.71449 32.6296 9.02486 33.7496 9.65909 34.7212C10.2933 35.6793 11.1839 36.4283 12.331 36.968C13.4915 37.5078 14.8544 37.7777 16.4197 37.7777ZM16.4197 18.8924C17.6882 18.8924 18.8082 18.636 19.7798 18.1232C20.7649 17.6104 21.5408 16.8952 22.1076 15.9776C22.6744 15.06 22.9645 14.0007 22.978 12.7997C22.9645 11.6122 22.6811 10.5732 22.1278 9.68253C21.5746 8.77841 20.8054 8.08345 19.8203 7.59766C18.8352 7.09836 17.7017 6.84872 16.4197 6.84872C15.1108 6.84872 13.957 7.09836 12.9585 7.59766C11.9734 8.08345 11.2042 8.77841 10.6509 9.68253C10.1112 10.5732 9.84801 11.6122 9.86151 12.7997C9.84801 14.0007 10.1179 15.06 10.6712 15.9776C11.2379 16.8817 12.0139 17.5969 12.9989 18.1232C13.9975 18.636 15.1378 18.8924 16.4197 18.8924ZM53.8007 43.7894C50.4676 43.7894 47.6068 42.946 45.2183 41.2592C42.8433 39.5589 41.0148 37.1097 39.7329 33.9116C38.4644 30.6999 37.8302 26.8338 37.8302 22.3132C37.8437 17.7926 38.4846 13.9467 39.7531 10.7756C41.0351 7.59091 42.8635 5.16193 45.2385 3.48864C47.627 1.81534 50.4811 0.978692 53.8007 0.978692C57.1203 0.978692 59.9743 1.81534 62.3628 3.48864C64.7513 5.16193 66.5798 7.59091 67.8483 10.7756C69.1302 13.9602 69.7712 17.8061 69.7712 22.3132C69.7712 26.8473 69.1302 30.7202 67.8483 33.9318C66.5798 37.13 64.7513 39.5724 62.3628 41.2592C59.9878 42.946 57.1338 43.7894 53.8007 43.7894ZM53.8007 37.4538C56.3916 37.4538 58.436 36.1786 59.9339 33.6282C61.4452 31.0643 62.2009 27.2926 62.2009 22.3132C62.2009 19.0206 61.8568 16.2543 61.1686 14.0142C60.4804 11.7741 59.5088 10.0874 58.2538 8.95384C56.9988 7.80682 55.5145 7.23331 53.8007 7.23331C51.2233 7.23331 49.1856 8.51527 47.6878 11.0792C46.1899 13.6296 45.4342 17.3743 45.4207 22.3132C45.4072 25.6193 45.7378 28.3991 46.4126 30.6527C47.1008 32.9062 48.0724 34.6065 49.3273 35.7536C50.5823 36.8871 52.0734 37.4538 53.8007 37.4538ZM88.8033 36.3608V8.34659H95.1591V36.3608H88.8033ZM77.9741 25.5316V19.1758H105.988V25.5316H77.9741Z" fill="url(#paint0_linear_21_95)"/>
<defs>
<linearGradient id="paint0_linear_21_95" x1="-2" y1="-18" x2="119.817" y2="47.4501" gradientUnits="userSpaceOnUse">
<stop stop-color="#D2B37A"/>
<stop offset="1" stop-color="#D2B37A"/>
</linearGradient>
</defs>
</svg>
