<svg width="172" height="45" viewBox="0 0 172 45" fill="none" xmlns="http://www.w3.org/2000/svg">
<path d="M38.1307 23.2727C38.1307 27.7393 37.294 31.565 35.6207 34.7496C33.9609 37.9208 31.6939 40.3498 28.8196 42.0366C25.9588 43.7234 22.7134 44.5668 19.0835 44.5668C15.4535 44.5668 12.2013 43.7234 9.32706 42.0366C6.46626 40.3363 4.19922 37.9006 2.52592 34.7294C0.866122 31.5447 0.0362217 27.7259 0.0362217 23.2727C0.0362217 18.8061 0.866122 14.9872 2.52592 11.8161C4.19922 8.63139 6.46626 6.19567 9.32706 4.50888C12.2013 2.82209 15.4535 1.97869 19.0835 1.97869C22.7134 1.97869 25.9588 2.82209 28.8196 4.50888C31.6939 6.19567 33.9609 8.63139 35.6207 11.8161C37.294 14.9872 38.1307 18.8061 38.1307 23.2727ZM30.5806 23.2727C30.5806 20.1286 30.0881 17.4769 29.103 15.3178C28.1314 13.1452 26.782 11.5057 25.0547 10.3991C23.3274 9.27912 21.337 8.71911 19.0835 8.71911C16.8299 8.71911 14.8395 9.27912 13.1122 10.3991C11.3849 11.5057 10.0288 13.1452 9.04368 15.3178C8.07209 17.4769 7.58629 20.1286 7.58629 23.2727C7.58629 26.4169 8.07209 29.0753 9.04368 31.2479C10.0288 33.407 11.3849 35.0465 13.1122 36.1665C14.8395 37.2731 16.8299 37.8263 19.0835 37.8263C21.337 37.8263 23.3274 37.2731 25.0547 36.1665C26.782 35.0465 28.1314 33.407 29.103 31.2479C30.0881 29.0753 30.5806 26.4169 30.5806 23.2727ZM52.2339 25.7827V44H44.9065V12.9091H51.9101V18.1921H52.2744C52.9896 16.4513 54.1299 15.0682 55.6952 14.0426C57.2741 13.017 59.224 12.5043 61.545 12.5043C63.6906 12.5043 65.5596 12.9631 67.1519 13.8807C68.7577 14.7983 69.9992 16.1275 70.8763 17.8683C71.767 19.609 72.2055 21.7209 72.192 24.2038V44H64.8646V25.3374C64.8646 23.2592 64.3248 21.6332 63.2453 20.4592C62.1792 19.2852 60.7016 18.6982 58.8124 18.6982C57.5305 18.6982 56.3902 18.9815 55.3916 19.5483C54.4065 20.1016 53.6306 20.9045 53.0638 21.957C52.5106 23.0096 52.2339 24.2848 52.2339 25.7827ZM86.9683 2.54545V44H79.6409V2.54545H86.9683ZM94.5032 44V12.9091H101.831V44H94.5032ZM98.1871 8.49645C97.0266 8.49645 96.0281 8.11186 95.1914 7.34268C94.3548 6.56001 93.9364 5.62216 93.9364 4.52912C93.9364 3.42258 94.3548 2.48473 95.1914 1.71555C96.0281 0.932882 97.0266 0.541547 98.1871 0.541547C99.3612 0.541547 100.36 0.932882 101.183 1.71555C102.02 2.48473 102.438 3.42258 102.438 4.52912C102.438 5.62216 102.02 6.56001 101.183 7.34268C100.36 8.11186 99.3612 8.49645 98.1871 8.49645ZM116.693 25.7827V44H109.366V12.9091H116.369V18.1921H116.733C117.449 16.4513 118.589 15.0682 120.154 14.0426C121.733 13.017 123.683 12.5043 126.004 12.5043C128.15 12.5043 130.019 12.9631 131.611 13.8807C133.217 14.7983 134.458 16.1275 135.335 17.8683C136.226 19.609 136.665 21.7209 136.651 24.2038V44H129.324V25.3374C129.324 23.2592 128.784 21.6332 127.704 20.4592C126.638 19.2852 125.161 18.6982 123.271 18.6982C121.989 18.6982 120.849 18.9815 119.851 19.5483C118.866 20.1016 118.09 20.9045 117.523 21.957C116.97 23.0096 116.693 24.2848 116.693 25.7827ZM157.864 44.6072C154.747 44.6072 152.055 43.9595 149.788 42.6641C147.534 41.3551 145.8 39.5064 144.586 37.1179C143.371 34.7159 142.764 31.8888 142.764 28.6367C142.764 25.4386 143.371 22.6317 144.586 20.2163C145.814 17.7873 147.527 15.8981 149.727 14.5486C151.927 13.1857 154.511 12.5043 157.479 12.5043C159.396 12.5043 161.204 12.8146 162.904 13.4354C164.618 14.0426 166.129 14.9872 167.438 16.2692C168.761 17.5511 169.8 19.1839 170.555 21.1676C171.311 23.1378 171.689 25.4858 171.689 28.2116V30.4585H146.205V25.5195H164.665C164.652 24.1161 164.348 22.8679 163.754 21.7749C163.161 20.6683 162.331 19.7979 161.265 19.1637C160.212 18.5295 158.984 18.2124 157.581 18.2124C156.083 18.2124 154.767 18.5767 153.634 19.3054C152.5 20.0206 151.616 20.9652 150.982 22.1392C150.361 23.2997 150.044 24.5749 150.031 25.9648V30.2763C150.031 32.0845 150.361 33.6364 151.022 34.9318C151.684 36.2138 152.608 37.1989 153.796 37.8871C154.983 38.5618 156.373 38.8991 157.965 38.8991C159.031 38.8991 159.996 38.7507 160.86 38.4538C161.723 38.1435 162.472 37.6914 163.107 37.0977C163.741 36.5039 164.22 35.7685 164.544 34.8913L171.385 35.6605C170.954 37.4687 170.13 39.0476 168.916 40.397C167.715 41.733 166.177 42.772 164.301 43.5142C162.425 44.2429 160.28 44.6072 157.864 44.6072Z" fill="url(#paint0_linear_21_101)"/>
<defs>
<linearGradient id="paint0_linear_21_101" x1="-3" y1="-17" x2="140.865" y2="103.69" gradientUnits="userSpaceOnUse">
<stop stop-color="#D2B37A"/>
<stop offset="1" stop-color="#D2B37A"/>
</linearGradient>
</defs>
</svg>
