<svg width="177" height="43" viewBox="0 0 177 43" fill="none" xmlns="http://www.w3.org/2000/svg">
<path d="M20.5813 28.924V10.9091H27.9087V42H20.804V36.4741H20.4801C19.7784 38.2148 18.6246 39.6385 17.0188 40.745C15.4265 41.8516 13.4631 42.4048 11.1286 42.4048C9.09091 42.4048 7.28942 41.9528 5.72408 41.0487C4.17223 40.131 2.95774 38.8018 2.08061 37.0611C1.20348 35.3068 0.764915 33.1882 0.764915 30.7053V10.9091H8.09233V29.5717C8.09233 31.5419 8.6321 33.1072 9.71165 34.2678C10.7912 35.4283 12.2081 36.0085 13.9624 36.0085C15.0419 36.0085 16.0877 35.7454 17.0998 35.2191C18.1119 34.6928 18.9418 33.9102 19.5895 32.8711C20.2507 31.8185 20.5813 30.5028 20.5813 28.924ZM35.0388 42V37.3445L51.07 17.2447V16.9815H35.5651V10.9091H60.037V15.9087L44.7749 35.6644V35.9276H60.5633V42H35.0388ZM73.0978 42H65.0822L79.6763 0.545453H88.9469L103.561 42H95.5456L84.4735 9.04688H84.1497L73.0978 42ZM73.361 25.7461H95.2218V31.7781H73.361V25.7461ZM120.923 35.3608V7.34659H127.279V35.3608H120.923ZM110.094 24.5316V18.1758H138.108V24.5316H110.094ZM159.276 35.3608V7.34659H165.632V35.3608H159.276ZM148.447 24.5316V18.1758H176.461V24.5316H148.447Z" fill="#D2B37A"/>
</svg>
