<svg width="160" height="63" viewBox="0 0 160 63" fill="none" xmlns="http://www.w3.org/2000/svg">
<g opacity="0.3">
<path d="M26.9503 0L21.9552 2.88389L31.9602 8.66036L9.98652 21.3251V29.7713L15.1457 32.7497L15.1423 24.301L37.136 11.6482L48.9038 18.4417V38.099L53.8982 35.2307V15.5587L26.9503 0Z" fill="white"/>
<path d="M0.000773452 15.5591L16.903 5.80074L21.9547 8.71779L5.05282 18.4761L5.05267 32.4836L26.9487 45.1265L34.28 40.9162V46.4976L26.9487 50.7076L5.05267 38.065V49.5944L0 46.6774L0.000773452 15.5591Z" fill="white"/>
<path d="M9.98652 52.4425L26.9487 62.2361L53.8982 46.677V40.9253L43.8507 46.6959L43.8511 21.3599L36.8679 17.3285L31.978 20.1366L38.9727 24.1751L39.0542 49.4506L26.9487 56.4013L9.98652 46.6085V52.4425Z" fill="white"/>
<path d="M26.9487 39.5646L34.28 35.3547L34.2796 26.8854L27.2711 22.8397L19.9212 27.0604L19.9216 35.1753L26.9487 39.5646Z" fill="white"/>
<path d="M70.2802 46.4549H71.5371C72.2935 46.4549 72.7168 46.0319 72.7168 45.2752V39.68H79.0897C79.8461 39.68 80.2695 39.2567 80.2695 38.5003V37.7653C80.2695 37.0085 79.8465 36.5856 79.0897 36.5856H72.7168V33.9272C72.7168 33.273 72.8958 32.8627 73.9606 32.8627H80.0132C80.7692 32.8627 81.193 32.4398 81.193 31.683V30.9651C81.193 30.2083 80.7696 29.7854 80.0132 29.7854H73.0752C70.3182 29.7854 69.1005 30.7983 69.1005 33.4655V45.2756C69.1005 46.0311 69.5238 46.4545 70.2802 46.4549Z" fill="white"/>
<path d="M87.3948 30.2332C87.3948 31.4644 86.7406 32.1951 85.4072 32.1951C84.0818 32.1951 83.4153 31.4644 83.4153 30.2332C83.4153 29.002 84.0818 28.2457 85.4072 28.2457C86.741 28.2457 87.3948 29.002 87.3948 30.2332Z" fill="white"/>
<path d="M84.7618 46.4549H86.0357C86.7921 46.4549 87.2154 46.0319 87.2154 45.2708V35.021C87.2154 34.2602 86.7921 33.8369 86.0357 33.8369H84.7618C84.0054 33.8369 83.582 34.2602 83.582 35.021V45.2708C83.582 46.0316 84.005 46.4549 84.7618 46.4549Z" fill="white"/>
<path d="M90.1815 39.5473C90.1815 34.9394 92.5029 33.606 96.4911 33.606C100.48 33.606 102.8 34.9394 102.8 39.5473V45.2708C102.8 46.0272 102.377 46.4545 101.62 46.4545H100.415C99.658 46.4545 99.235 46.0276 99.235 45.2708V39.4915C99.235 37.2342 98.4137 36.6062 96.4907 36.6062C94.5669 36.6062 93.7464 37.2346 93.7464 39.4915V45.2708C93.7464 46.0272 93.3234 46.4545 92.5667 46.4545H91.3612C90.6045 46.4545 90.1815 46.0276 90.1815 45.2708V39.5473Z" fill="white"/>
<path d="M112.212 36.5555C112.764 36.5555 113.418 36.6193 114.11 36.7218C115.072 36.8759 115.636 36.5424 115.636 35.7219V35.2859C115.636 34.5929 115.316 34.1315 114.636 33.9775C113.585 33.7217 112.559 33.606 111.636 33.606C107.853 33.606 105.211 35.7472 105.211 40.1461C105.211 44.5485 107.853 46.6818 111.636 46.6818C112.559 46.6818 113.585 46.5665 114.636 46.31C115.316 46.1563 115.636 45.6945 115.636 44.9976V44.5616C115.636 43.7411 115.162 43.3819 114.341 43.5102C113.559 43.6511 112.815 43.7153 112.212 43.7153C109.814 43.7153 108.827 42.6766 108.827 40.1465C108.827 37.62 109.814 36.5555 112.212 36.5555Z" fill="white"/>
<path d="M126.857 40.7955V35.021C126.856 34.2602 127.279 33.8369 128.036 33.8369H129.241C129.998 33.8369 130.421 34.2602 130.421 35.021V40.7445C130.421 45.352 128.1 46.6858 124.112 46.6858C120.123 46.6858 117.803 45.352 117.803 40.7445V35.021C117.803 34.2602 118.226 33.8369 118.982 33.8369H120.188C120.945 33.8369 121.368 34.2602 121.368 35.021V40.7955C121.368 43.0567 122.189 43.6848 124.112 43.6848C126.036 43.6848 126.857 43.0567 126.857 40.7955Z" fill="white"/>
<path fill-rule="evenodd" clip-rule="evenodd" d="M138.436 33.6104C137.871 33.6104 137.269 33.6361 136.653 33.6872V29.6733C136.653 28.9169 136.23 28.4936 135.474 28.4936H134.268C133.511 28.4936 133.089 28.9165 133.089 29.6733V42.6591C133.089 45.5314 134.692 46.6854 138.436 46.6854C142.937 46.6854 145.604 45.0186 145.604 40.1457C145.604 35.2558 142.937 33.61 138.436 33.6104ZM138.679 43.6848C136.859 43.6848 136.654 43.1593 136.654 42.1206V36.7567C137.41 36.6541 138.077 36.6026 138.654 36.6026C141.039 36.6026 142.04 37.4489 142.04 40.1461C142.039 42.8001 141.039 43.6848 138.679 43.6848Z" fill="white"/>
<path fill-rule="evenodd" clip-rule="evenodd" d="M154.247 33.606C157.854 33.606 160 35.2986 160 38.5043C160 40.2993 159.244 41.0561 156.931 41.2997L151.524 41.8683C151.986 43.3046 153.148 43.8175 154.849 43.8175C155.678 43.8175 156.675 43.6769 157.778 43.4072C158.615 43.2147 159.116 43.5739 159.116 44.4075V44.7921C159.116 45.489 158.795 45.9381 158.111 46.1175C156.726 46.4893 155.423 46.6818 154.221 46.6818C150.348 46.6818 147.746 44.5612 147.746 40.1461C147.746 35.9781 149.951 33.606 154.247 33.606ZM151.336 39.2741L155.743 38.825C156.482 38.7478 156.624 38.6068 156.624 38.1708C156.624 36.9527 155.884 36.2989 154.247 36.2989C152.473 36.2989 151.524 37.1071 151.336 39.2741Z" fill="white"/>
<path fill-rule="evenodd" clip-rule="evenodd" d="M69.0568 24.5851H71.7273C72.6062 24.5851 73.3527 24.4133 73.9669 24.0695C74.581 23.723 75.0486 23.2283 75.3697 22.5856C75.6909 21.94 75.8514 21.1701 75.8514 20.2758C75.8514 19.3871 75.6923 18.6242 75.374 17.987C75.0556 17.347 74.5979 16.8566 74.0007 16.5156C73.4034 16.1719 72.6851 16 71.8456 16H69.0568V24.5851ZM71.6597 23.6629H70.1047V16.9222H71.778C72.4541 16.9222 73.0189 17.0578 73.4725 17.3288C73.926 17.5971 74.2669 17.9828 74.495 18.4858C74.7232 18.9861 74.8373 19.5827 74.8373 20.2758C74.8373 20.9745 74.7218 21.5767 74.4908 22.0825C74.2598 22.5884 73.9091 22.9782 73.4387 23.2521C72.9682 23.526 72.3752 23.6629 71.6597 23.6629Z" fill="white"/>
<path d="M98.5163 24.5851V16H97.519V24.5851H98.5163Z" fill="white"/>
<path fill-rule="evenodd" clip-rule="evenodd" d="M146.727 16V24.5851H147.69V23.5958H147.808C147.882 23.7132 147.986 23.8613 148.121 24.0402C148.256 24.2162 148.449 24.3741 148.7 24.5139C148.951 24.6508 149.284 24.7193 149.701 24.7193C150.242 24.7193 150.72 24.5837 151.134 24.3126C151.548 24.0388 151.872 23.6531 152.106 23.1557C152.34 22.6554 152.456 22.0644 152.456 21.3825C152.456 20.7062 152.34 20.1193 152.106 19.6219C151.872 19.1244 151.547 18.7401 151.13 18.4691C150.713 18.198 150.231 18.0624 149.684 18.0624C149.262 18.0624 148.927 18.1323 148.679 18.272C148.434 18.409 148.245 18.5655 148.113 18.7415C147.983 18.9148 147.882 19.0573 147.808 19.1691H147.724V16H146.727ZM147.922 22.6526C147.779 22.2809 147.707 21.852 147.707 21.3657C147.707 20.885 147.777 20.4644 147.918 20.1039C148.059 19.7406 148.268 19.4584 148.544 19.2572C148.82 19.0531 149.161 18.9511 149.566 18.9511C149.989 18.9511 150.339 19.0587 150.618 19.2739C150.9 19.4863 151.11 19.7756 151.248 20.1417C151.389 20.505 151.459 20.913 151.459 21.3657C151.459 21.824 151.387 22.2404 151.244 22.6149C151.103 22.9866 150.892 23.2828 150.61 23.5036C150.331 23.7216 149.983 23.8306 149.566 23.8306C149.166 23.8306 148.828 23.7272 148.552 23.5204C148.276 23.3108 148.066 23.0215 147.922 22.6526Z" fill="white"/>
<path d="M154.392 27C154.223 27 154.072 26.986 153.94 26.9581C153.807 26.9329 153.716 26.9078 153.665 26.8826L153.919 26.0107C154.161 26.0722 154.375 26.0945 154.561 26.0778C154.747 26.061 154.911 25.9786 155.055 25.8304C155.202 25.6851 155.335 25.449 155.457 25.122L155.643 24.619L153.242 18.1466H154.324L156.116 23.2775H156.183L157.975 18.1466H159.057L156.302 25.5244C156.178 25.857 156.024 26.1323 155.841 26.3502C155.658 26.571 155.445 26.7345 155.203 26.8407C154.964 26.9469 154.693 27 154.392 27Z" fill="white"/>
<path d="M141.745 18.1464V18.9848H140.359V22.7408C140.359 23.0203 140.4 23.2299 140.481 23.3696C140.566 23.5065 140.673 23.5988 140.802 23.6463C140.935 23.691 141.074 23.7133 141.221 23.7133C141.331 23.7133 141.421 23.7077 141.491 23.6966L141.66 23.663L141.863 24.5517C141.795 24.5769 141.701 24.602 141.58 24.6272C141.459 24.6551 141.305 24.6691 141.119 24.6691C140.838 24.6691 140.562 24.609 140.291 24.4888C140.024 24.3687 139.801 24.1856 139.623 23.9397C139.449 23.6938 139.362 23.3836 139.362 23.0091V18.9848H138.381V18.1464H139.362V16.6038H140.359V18.1464H141.745Z" fill="white"/>
<path d="M132.959 20.7118V24.5852H131.961V18.1464H132.925V19.1524H133.009C133.162 18.8255 133.393 18.5628 133.702 18.3644C134.012 18.1631 134.412 18.0625 134.902 18.0625C135.342 18.0625 135.726 18.152 136.056 18.3308C136.386 18.5069 136.642 18.7752 136.825 19.1357C137.008 19.4934 137.1 19.9461 137.1 20.4939V24.5852H136.103V20.5609C136.103 20.0551 135.97 19.6611 135.705 19.3788C135.441 19.0938 135.077 18.9512 134.615 18.9512C134.297 18.9512 134.012 19.0197 133.762 19.1566C133.514 19.2936 133.318 19.4934 133.174 19.7561C133.031 20.0188 132.959 20.3374 132.959 20.7118Z" fill="white"/>
<path fill-rule="evenodd" clip-rule="evenodd" d="M127.757 24.7194C127.132 24.7194 126.592 24.5824 126.139 24.3085C125.688 24.0319 125.34 23.6462 125.095 23.1516C124.853 22.6541 124.732 22.0756 124.732 21.4161C124.732 20.7566 124.853 20.1753 125.095 19.6722C125.34 19.1664 125.681 18.7724 126.118 18.4901C126.557 18.2051 127.07 18.0625 127.656 18.0625C127.994 18.0625 128.328 18.1184 128.657 18.2302C128.987 18.342 129.287 18.5236 129.557 18.7752C129.828 19.0239 130.043 19.3537 130.204 19.7645C130.364 20.1753 130.445 20.6811 130.445 21.282V21.7011H125.731C125.745 22.1295 125.829 22.497 125.982 22.8036C126.154 23.139 126.392 23.3947 126.696 23.5708C127.001 23.744 127.354 23.8307 127.757 23.8307C128.019 23.8307 128.256 23.7943 128.467 23.7217C128.681 23.6462 128.866 23.5344 129.021 23.3863C129.175 23.2354 129.295 23.0482 129.38 22.8246L130.343 23.0929C130.242 23.4171 130.071 23.7021 129.832 23.948C129.592 24.1912 129.297 24.3812 128.944 24.5181C128.592 24.6523 128.197 24.7194 127.757 24.7194ZM125.961 19.9992C125.828 20.2651 125.753 20.5473 125.734 20.846H129.43C129.43 20.4827 129.357 20.1585 129.211 19.8735C129.067 19.5884 128.861 19.3634 128.594 19.1985C128.329 19.0337 128.016 18.9512 127.656 18.9512C127.258 18.9512 126.915 19.049 126.625 19.2447C126.337 19.4375 126.116 19.689 125.961 19.9992Z" fill="white"/>
<path d="M114.694 24.5852V18.1464H115.657V19.1524H115.742C115.877 18.8087 116.095 18.5418 116.397 18.3518C116.698 18.1589 117.06 18.0625 117.483 18.0625C117.911 18.0625 118.267 18.1589 118.552 18.3518C118.839 18.5418 119.063 18.8087 119.224 19.1524H119.291C119.457 18.8199 119.707 18.5558 120.039 18.3602C120.371 18.1617 120.77 18.0625 121.235 18.0625C121.815 18.0625 122.29 18.2428 122.659 18.6033C123.028 18.961 123.212 19.5185 123.212 20.2759V24.5852H122.215V20.2759C122.215 19.8008 122.084 19.4612 121.822 19.2572C121.56 19.0532 121.252 18.9512 120.897 18.9512C120.441 18.9512 120.087 19.0882 119.836 19.362C119.586 19.6331 119.46 19.9769 119.46 20.3933V24.5852H118.446V20.1753C118.446 19.8092 118.326 19.5143 118.087 19.2908C117.847 19.0644 117.539 18.9512 117.161 18.9512C116.902 18.9512 116.66 19.0197 116.435 19.1566C116.212 19.2936 116.032 19.4836 115.894 19.7267C115.759 19.9671 115.691 20.2451 115.691 20.5609V24.5852H114.694Z" fill="white"/>
<path fill-rule="evenodd" clip-rule="evenodd" d="M107.443 26.9998V18.1464H108.406V19.1692H108.524C108.598 19.0574 108.699 18.9149 108.829 18.7416C108.961 18.5656 109.15 18.4091 109.395 18.2721C109.643 18.1324 109.978 18.0625 110.401 18.0625C110.947 18.0625 111.429 18.1981 111.846 18.4691C112.263 18.7402 112.588 19.1245 112.822 19.6219C113.056 20.1194 113.173 20.7063 113.173 21.3826C113.173 22.0645 113.056 22.6555 112.822 23.1558C112.588 23.6532 112.264 24.0389 111.85 24.3127C111.436 24.5838 110.958 24.7194 110.418 24.7194C110.001 24.7194 109.667 24.6509 109.416 24.514C109.165 24.3742 108.972 24.2163 108.837 24.0403C108.702 23.8614 108.598 23.7133 108.524 23.5959H108.44V26.9998H107.443ZM108.423 21.3658C108.423 21.8521 108.495 22.281 108.639 22.6527C108.782 23.0216 108.992 23.3109 109.268 23.5205C109.544 23.7273 109.882 23.8307 110.282 23.8307C110.699 23.8307 111.047 23.7217 111.326 23.5037C111.608 23.2829 111.819 22.9867 111.96 22.615C112.104 22.2405 112.175 21.8241 112.175 21.3658C112.175 20.9131 112.105 20.505 111.964 20.1417C111.826 19.7756 111.616 19.4864 111.334 19.274C111.056 19.0588 110.705 18.9512 110.282 18.9512C109.877 18.9512 109.536 19.0532 109.26 19.2572C108.984 19.4585 108.775 19.7407 108.634 20.104C108.493 20.4645 108.423 20.8851 108.423 21.3658Z" fill="white"/>
<path fill-rule="evenodd" clip-rule="evenodd" d="M102.98 24.7194C102.394 24.7194 101.879 24.581 101.437 24.3044C100.998 24.0277 100.654 23.6406 100.406 23.1432C100.161 22.6457 100.039 22.0645 100.039 21.3993C100.039 20.7286 100.161 20.1431 100.406 19.6429C100.654 19.1427 100.998 18.7542 101.437 18.4775C101.879 18.2009 102.394 18.0625 102.98 18.0625C103.565 18.0625 104.078 18.2009 104.518 18.4775C104.96 18.7542 105.304 19.1427 105.549 19.6429C105.797 20.1431 105.921 20.7286 105.921 21.3993C105.921 22.0645 105.797 22.6457 105.549 23.1432C105.304 23.6406 104.96 24.0277 104.518 24.3044C104.078 24.581 103.565 24.7194 102.98 24.7194ZM102.98 23.8307C103.425 23.8307 103.791 23.7175 104.078 23.4911C104.366 23.2647 104.578 22.9671 104.716 22.5982C104.854 22.2293 104.923 21.8297 104.923 21.3993C104.923 20.969 104.854 20.5679 104.716 20.1962C104.578 19.8245 104.366 19.5241 104.078 19.295C103.791 19.0658 103.425 18.9512 102.98 18.9512C102.534 18.9512 102.168 19.0658 101.881 19.295C101.594 19.5241 101.381 19.8245 101.243 20.1962C101.105 20.5679 101.036 20.969 101.036 21.3993C101.036 21.8297 101.105 22.2293 101.243 22.5982C101.381 22.9671 101.594 23.2647 101.881 23.4911C102.168 23.7175 102.534 23.8307 102.98 23.8307Z" fill="white"/>
<path fill-rule="evenodd" clip-rule="evenodd" d="M91.6963 24.3085C92.1498 24.5824 92.6893 24.7194 93.3147 24.7194C93.7541 24.7194 94.1499 24.6523 94.502 24.5181C94.8542 24.3812 95.1499 24.1912 95.3894 23.948C95.6288 23.7021 95.7993 23.4171 95.9007 23.0929L94.9373 22.8246C94.8528 23.0482 94.733 23.2354 94.5781 23.3863C94.4232 23.5344 94.2386 23.6462 94.0245 23.7217C93.8133 23.7943 93.5766 23.8307 93.3147 23.8307C92.9118 23.8307 92.5583 23.744 92.254 23.5708C91.9498 23.3947 91.7118 23.139 91.5399 22.8036C91.3867 22.497 91.3029 22.1295 91.2886 21.7011H96.0021V21.282C96.0021 20.6811 95.9218 20.1753 95.7612 19.7645C95.6007 19.3537 95.3852 19.0239 95.1147 18.7752C94.8443 18.5236 94.5443 18.342 94.2147 18.2302C93.8851 18.1184 93.5513 18.0625 93.2132 18.0625C92.6273 18.0625 92.1146 18.2051 91.6751 18.4901C91.2385 18.7724 90.8976 19.1664 90.6526 19.6722C90.4103 20.1753 90.2892 20.7566 90.2892 21.4161C90.2892 22.0756 90.4103 22.6541 90.6526 23.1516C90.8976 23.6462 91.2455 24.0319 91.6963 24.3085ZM91.2911 20.846C91.3101 20.5473 91.386 20.2651 91.5188 19.9992C91.6737 19.689 91.8949 19.4375 92.1822 19.2447C92.4724 19.049 92.816 18.9512 93.2132 18.9512C93.5738 18.9512 93.8865 19.0337 94.1513 19.1985C94.4189 19.3634 94.6246 19.5884 94.7682 19.8735C94.9147 20.1585 94.988 20.4827 94.988 20.846H91.2911Z" fill="white"/>
<path d="M87.1094 24.5854L89.5095 18.1466H88.4278L86.6361 23.2775H86.5685L84.7769 18.1466H83.6951L86.0953 24.5854H87.1094Z" fill="white"/>
<path fill-rule="evenodd" clip-rule="evenodd" d="M78.577 24.3085C79.0305 24.5824 79.57 24.7194 80.1954 24.7194C80.6348 24.7194 81.0306 24.6523 81.3828 24.5181C81.7349 24.3812 82.0307 24.1912 82.2701 23.948C82.5096 23.7021 82.68 23.4171 82.7814 23.0929L81.818 22.8246C81.7335 23.0482 81.6138 23.2354 81.4588 23.3863C81.3039 23.5344 81.1194 23.6462 80.9053 23.7217C80.694 23.7943 80.4574 23.8307 80.1954 23.8307C79.7925 23.8307 79.439 23.744 79.1348 23.5708C78.8305 23.3947 78.5925 23.139 78.4206 22.8036C78.2674 22.497 78.1836 22.1295 78.1693 21.7011H82.8828V21.282C82.8828 20.6811 82.8025 20.1753 82.642 19.7645C82.4814 19.3537 82.2659 19.0239 81.9955 18.7752C81.725 18.5236 81.425 18.342 81.0954 18.2302C80.7658 18.1184 80.432 18.0625 80.094 18.0625C79.508 18.0625 78.9953 18.2051 78.5559 18.4901C78.1192 18.7724 77.7784 19.1664 77.5333 19.6722C77.291 20.1753 77.1699 20.7566 77.1699 21.4161C77.1699 22.0756 77.291 22.6541 77.5333 23.1516C77.7784 23.6462 78.1263 24.0319 78.577 24.3085ZM78.1719 20.846C78.1909 20.5473 78.2667 20.2651 78.3995 19.9992C78.5545 19.689 78.7756 19.4375 79.0629 19.2447C79.3531 19.049 79.6968 18.9512 80.094 18.9512C80.4545 18.9512 80.7672 19.0337 81.032 19.1985C81.2997 19.3634 81.5053 19.5884 81.649 19.8735C81.7954 20.1585 81.8687 20.4827 81.8687 20.846H78.1719Z" fill="white"/>
</g>
</svg>
