<svg width="120" height="120" viewBox="0 0 120 120" fill="none" xmlns="http://www.w3.org/2000/svg">
<mask id="mask0_23_119" style="mask-type:alpha" maskUnits="userSpaceOnUse" x="10" y="10" width="100" height="100">
<circle cx="60" cy="60" r="50" fill="#D2B37A"/>
</mask>
<g mask="url(#mask0_23_119)">
<circle cx="60" cy="60" r="50" fill="#ECF2F5"/>
<g filter="url(#filter0_b_23_119)">
<path d="M59.6554 64C70.1488 64 78.6554 55.4934 78.6554 45C78.6554 34.5066 70.1488 26 59.6554 26C49.162 26 40.6554 34.5066 40.6554 45C40.6554 55.4934 49.162 64 59.6554 64Z" fill="#D2B37A"/>
<path d="M59.6554 64C70.1488 64 78.6554 55.4934 78.6554 45C78.6554 34.5066 70.1488 26 59.6554 26C49.162 26 40.6554 34.5066 40.6554 45C40.6554 55.4934 49.162 64 59.6554 64Z" fill="url(#paint0_linear_23_119)"/>
<path d="M60.6554 72C44.4424 72 29.8982 79.1451 20 90.4582C29.141 102.342 43.5038 110 59.6554 110C76.3505 110 91.1345 101.818 100.216 89.2441C90.3556 78.6363 76.2805 72 60.6554 72Z" fill="#D2B37A"/>
<path d="M60.6554 72C44.4424 72 29.8982 79.1451 20 90.4582C29.141 102.342 43.5038 110 59.6554 110C76.3505 110 91.1345 101.818 100.216 89.2441C90.3556 78.6363 76.2805 72 60.6554 72Z" fill="url(#paint1_linear_23_119)"/>
</g>
</g>
<g filter="url(#filter1_b_23_119)">
<circle cx="90" cy="90" r="20" fill="#002C47" fill-opacity="0.3"/>
</g>
<g filter="url(#filter2_dd_23_119)">
<path d="M93 78H87V87H78V93H87V102H93V93H102V87H93V78Z" fill="white"/>
</g>
<defs>
<filter id="filter0_b_23_119" x="8" y="14" width="104.216" height="108" filterUnits="userSpaceOnUse" color-interpolation-filters="sRGB">
<feFlood flood-opacity="0" result="BackgroundImageFix"/>
<feGaussianBlur in="BackgroundImageFix" stdDeviation="6"/>
<feComposite in2="SourceAlpha" operator="in" result="effect1_backgroundBlur_23_119"/>
<feBlend mode="normal" in="SourceGraphic" in2="effect1_backgroundBlur_23_119" result="shape"/>
</filter>
<filter id="filter1_b_23_119" x="64" y="64" width="52" height="52" filterUnits="userSpaceOnUse" color-interpolation-filters="sRGB">
<feFlood flood-opacity="0" result="BackgroundImageFix"/>
<feGaussianBlur in="BackgroundImageFix" stdDeviation="3"/>
<feComposite in2="SourceAlpha" operator="in" result="effect1_backgroundBlur_23_119"/>
<feBlend mode="normal" in="SourceGraphic" in2="effect1_backgroundBlur_23_119" result="shape"/>
</filter>
<filter id="filter2_dd_23_119" x="74" y="76" width="32" height="32" filterUnits="userSpaceOnUse" color-interpolation-filters="sRGB">
<feFlood flood-opacity="0" result="BackgroundImageFix"/>
<feColorMatrix in="SourceAlpha" type="matrix" values="0 0 0 0 0 0 0 0 0 0 0 0 0 0 0 0 0 0 127 0" result="hardAlpha"/>
<feOffset dy="2"/>
<feGaussianBlur stdDeviation="2"/>
<feComposite in2="hardAlpha" operator="out"/>
<feColorMatrix type="matrix" values="0 0 0 0 0 0 0 0 0 0 0 0 0 0 0 0 0 0 0.06 0"/>
<feBlend mode="normal" in2="BackgroundImageFix" result="effect1_dropShadow_23_119"/>
<feColorMatrix in="SourceAlpha" type="matrix" values="0 0 0 0 0 0 0 0 0 0 0 0 0 0 0 0 0 0 127 0" result="hardAlpha"/>
<feOffset dy="1"/>
<feGaussianBlur stdDeviation="1"/>
<feComposite in2="hardAlpha" operator="out"/>
<feColorMatrix type="matrix" values="0 0 0 0 0 0 0 0 0 0 0 0 0 0 0 0 0 0 0.1 0"/>
<feBlend mode="normal" in2="effect1_dropShadow_23_119" result="effect2_dropShadow_23_119"/>
<feBlend mode="normal" in="SourceGraphic" in2="effect2_dropShadow_23_119" result="shape"/>
</filter>
<linearGradient id="paint0_linear_23_119" x1="20" y1="26" x2="117.784" y2="61.2074" gradientUnits="userSpaceOnUse">
<stop stop-color="#FFDC62"/>
<stop offset="1" stop-color="#D2B37A"/>
</linearGradient>
<linearGradient id="paint1_linear_23_119" x1="20" y1="26" x2="117.784" y2="61.2074" gradientUnits="userSpaceOnUse">
<stop stop-color="#FFDC62"/>
<stop offset="1" stop-color="#D2B37A"/>
</linearGradient>
</defs>
</svg>
