<svg width="120" height="120" viewBox="0 0 120 120" fill="none" xmlns="http://www.w3.org/2000/svg">
<circle cx="60" cy="60" r="50" fill="#ECF2F5"/>
<path fill-rule="evenodd" clip-rule="evenodd" d="M88.2025 48.8354L61 28L33.7975 48.8354C32.6645 49.7032 32 51.0502 32 52.4786V88.4137C32 90.9467 34.0501 93 36.5789 93H85.4211C87.95 93 90 90.9466 90 88.4137V52.4786C90 51.0502 89.3354 49.7032 88.2025 48.8354Z" fill="#D2B37A"/>
<path fill-rule="evenodd" clip-rule="evenodd" d="M88.2025 48.8354L61 28L33.7975 48.8354C32.6645 49.7032 32 51.0502 32 52.4786V88.4137C32 90.9467 34.0501 93 36.5789 93H85.4211C87.95 93 90 90.9466 90 88.4137V52.4786C90 51.0502 89.3354 49.7032 88.2025 48.8354Z" fill="url(#paint0_linear_23_146)"/>
<g filter="url(#filter0_b_23_146)">
<circle cx="90" cy="90" r="20" fill="#002C47" fill-opacity="0.3"/>
</g>
<g filter="url(#filter1_dd_23_146)">
<path d="M81 86L77 90L87 100L103 84L99 80L87 92L81 86Z" fill="white"/>
</g>
<defs>
<filter id="filter0_b_23_146" x="64" y="64" width="52" height="52" filterUnits="userSpaceOnUse" color-interpolation-filters="sRGB">
<feFlood flood-opacity="0" result="BackgroundImageFix"/>
<feGaussianBlur in="BackgroundImageFix" stdDeviation="3"/>
<feComposite in2="SourceAlpha" operator="in" result="effect1_backgroundBlur_23_146"/>
<feBlend mode="normal" in="SourceGraphic" in2="effect1_backgroundBlur_23_146" result="shape"/>
</filter>
<filter id="filter1_dd_23_146" x="73" y="78" width="34" height="28" filterUnits="userSpaceOnUse" color-interpolation-filters="sRGB">
<feFlood flood-opacity="0" result="BackgroundImageFix"/>
<feColorMatrix in="SourceAlpha" type="matrix" values="0 0 0 0 0 0 0 0 0 0 0 0 0 0 0 0 0 0 127 0" result="hardAlpha"/>
<feOffset dy="2"/>
<feGaussianBlur stdDeviation="2"/>
<feComposite in2="hardAlpha" operator="out"/>
<feColorMatrix type="matrix" values="0 0 0 0 0 0 0 0 0 0 0 0 0 0 0 0 0 0 0.06 0"/>
<feBlend mode="normal" in2="BackgroundImageFix" result="effect1_dropShadow_23_146"/>
<feColorMatrix in="SourceAlpha" type="matrix" values="0 0 0 0 0 0 0 0 0 0 0 0 0 0 0 0 0 0 127 0" result="hardAlpha"/>
<feOffset dy="1"/>
<feGaussianBlur stdDeviation="1"/>
<feComposite in2="hardAlpha" operator="out"/>
<feColorMatrix type="matrix" values="0 0 0 0 0 0 0 0 0 0 0 0 0 0 0 0 0 0 0.1 0"/>
<feBlend mode="normal" in2="effect1_dropShadow_23_146" result="effect2_dropShadow_23_146"/>
<feBlend mode="normal" in="SourceGraphic" in2="effect2_dropShadow_23_146" result="shape"/>
</filter>
<linearGradient id="paint0_linear_23_146" x1="32" y1="28" x2="103.747" y2="52.1383" gradientUnits="userSpaceOnUse">
<stop stop-color="#FFDC62"/>
<stop offset="1" stop-color="#D2B37A"/>
</linearGradient>
</defs>
</svg>
