<svg width="80" height="80" viewBox="0 0 80 80" fill="none" xmlns="http://www.w3.org/2000/svg">
<circle cx="40" cy="40" r="33.3333" fill="#ECF2F5"/>
<path fill-rule="evenodd" clip-rule="evenodd" d="M40 14.6666L59.0972 23.294C59.9614 23.6846 60.6957 24.3216 61.2109 25.1278C61.7261 25.9341 62.0002 26.8749 62 27.8363V40.3885C61.9997 46.6465 60.0625 52.7457 56.4629 57.8223C52.8632 62.899 47.7836 66.6957 41.9433 68.6748L40 69.3333L38.0567 68.6748C32.2162 66.6957 27.1364 62.8987 23.5368 57.8218C19.9371 52.7449 18.0001 46.6454 18 40.3873V27.8351C18 26.8739 18.2742 25.9333 18.7894 25.1273C19.3047 24.3213 20.0387 23.6845 20.9028 23.294L40 14.6666Z" fill="#D2B37A"/>
<path fill-rule="evenodd" clip-rule="evenodd" d="M40 14.6666L59.0972 23.294C59.9614 23.6846 60.6957 24.3216 61.2109 25.1278C61.7261 25.9341 62.0002 26.8749 62 27.8363V40.3885C61.9997 46.6465 60.0625 52.7457 56.4629 57.8223C52.8632 62.899 47.7836 66.6957 41.9433 68.6748L40 69.3333L38.0567 68.6748C32.2162 66.6957 27.1364 62.8987 23.5368 57.8218C19.9371 52.7449 18.0001 46.6454 18 40.3873V27.8351C18 26.8739 18.2742 25.9333 18.7894 25.1273C19.3047 24.3213 20.0387 23.6845 20.9028 23.294L40 14.6666Z" fill="url(#paint0_linear_23_238)"/>
<g filter="url(#filter0_b_23_238)">
<circle cx="60" cy="60" r="13.3333" fill="#002C47" fill-opacity="0.3"/>
</g>
<g filter="url(#filter1_dd_23_238)">
<path d="M54 57.3334L51.3333 60L58 66.6667L68.6666 56L66 53.3334L58 61.3334L54 57.3334Z" fill="white"/>
</g>
<defs>
<filter id="filter0_b_23_238" x="40.6667" y="40.6666" width="38.6667" height="38.6666" filterUnits="userSpaceOnUse" color-interpolation-filters="sRGB">
<feFlood flood-opacity="0" result="BackgroundImageFix"/>
<feGaussianBlur in="BackgroundImageFix" stdDeviation="3"/>
<feComposite in2="SourceAlpha" operator="in" result="effect1_backgroundBlur_23_238"/>
<feBlend mode="normal" in="SourceGraphic" in2="effect1_backgroundBlur_23_238" result="shape"/>
</filter>
<filter id="filter1_dd_23_238" x="47.3333" y="51.3334" width="25.3333" height="21.3334" filterUnits="userSpaceOnUse" color-interpolation-filters="sRGB">
<feFlood flood-opacity="0" result="BackgroundImageFix"/>
<feColorMatrix in="SourceAlpha" type="matrix" values="0 0 0 0 0 0 0 0 0 0 0 0 0 0 0 0 0 0 127 0" result="hardAlpha"/>
<feOffset dy="2"/>
<feGaussianBlur stdDeviation="2"/>
<feComposite in2="hardAlpha" operator="out"/>
<feColorMatrix type="matrix" values="0 0 0 0 0 0 0 0 0 0 0 0 0 0 0 0 0 0 0.06 0"/>
<feBlend mode="normal" in2="BackgroundImageFix" result="effect1_dropShadow_23_238"/>
<feColorMatrix in="SourceAlpha" type="matrix" values="0 0 0 0 0 0 0 0 0 0 0 0 0 0 0 0 0 0 127 0" result="hardAlpha"/>
<feOffset dy="1"/>
<feGaussianBlur stdDeviation="1"/>
<feComposite in2="hardAlpha" operator="out"/>
<feColorMatrix type="matrix" values="0 0 0 0 0 0 0 0 0 0 0 0 0 0 0 0 0 0 0.1 0"/>
<feBlend mode="normal" in2="effect1_dropShadow_23_238" result="effect2_dropShadow_23_238"/>
<feBlend mode="normal" in="SourceGraphic" in2="effect2_dropShadow_23_238" result="shape"/>
</filter>
<linearGradient id="paint0_linear_23_238" x1="18" y1="14.6666" x2="73.4803" y2="31.5033" gradientUnits="userSpaceOnUse">
<stop stop-color="#FFDC62"/>
<stop offset="1" stop-color="#D2B37A"/>
</linearGradient>
</defs>
</svg>
