<svg width="80" height="80" viewBox="0 0 80 80" fill="none" xmlns="http://www.w3.org/2000/svg">
<circle cx="40" cy="40" r="33.3333" fill="#ECF2F5"/>
<path fill-rule="evenodd" clip-rule="evenodd" d="M57.0365 29.4737H61.6032C61.8852 29.4737 62.1557 29.5846 62.3552 29.782C62.5546 29.9794 62.6667 30.2471 62.6667 30.5263V31.5789C62.6667 32.1373 62.4426 32.6728 62.0437 33.0676C61.6448 33.4624 61.1038 33.6842 60.5397 33.6842H58.7881L59.8984 36.3547C60.3217 37.3718 60.5395 38.4611 60.5397 39.5611V57.8947C60.5397 58.4531 60.3156 58.9886 59.9167 59.3834C59.5178 59.7782 58.9768 60 58.4127 60H56.7558C56.3092 60.0001 55.8739 59.8611 55.5116 59.6026C55.1493 59.3442 54.8784 58.9794 54.7373 58.56L53.4164 54.6368C53.3137 54.3319 53.1419 54.0544 52.914 53.8254C52.6862 53.5964 52.4084 53.4221 52.1019 53.3158C48.7636 52.1579 44.8415 51.5789 40.3333 51.5789C35.8252 51.5789 31.903 52.1579 28.5647 53.3158C28.2583 53.4221 27.9805 53.5964 27.7526 53.8254C27.5248 54.0544 27.3529 54.3319 27.2503 54.6368L25.9294 58.56C25.7883 58.9794 25.5174 59.3442 25.1551 59.6026C24.7928 59.8611 24.3575 60.0001 23.9109 60H22.254C21.6899 60 21.1489 59.7782 20.75 59.3834C20.3511 58.9886 20.127 58.4531 20.127 57.8947V39.5611C20.1271 38.4611 20.345 37.3718 20.7683 36.3547L21.8786 33.6842H20.127C19.5629 33.6842 19.0219 33.4624 18.623 33.0676C18.2241 32.6728 18 32.1373 18 31.5789V30.5263C18 30.2471 18.112 29.9794 18.3115 29.782C18.5109 29.5846 18.7814 29.4737 19.0635 29.4737H23.6301L26.2155 23.2589C26.6166 22.2948 27.2981 21.4703 28.1735 20.8901C29.0488 20.3099 30.0785 20.0001 31.132 20H49.5347C50.5882 20.0001 51.6179 20.3099 52.4932 20.8901C53.3685 21.4703 54.05 22.2948 54.4512 23.2589L57.0365 29.4737ZM24.6298 37.9611C24.4613 37.8931 24.276 37.877 24.0981 37.9147C23.5727 38.0274 23.2313 38.5716 23.3366 39.1316L23.5004 40.0053C23.7854 41.5242 24.8436 42.7463 26.2421 43.1716L29.524 44.1716C29.6105 44.1977 29.7005 44.2108 29.7909 44.2105C30.3269 44.2105 30.7619 43.7474 30.7619 43.1758V42.4789C30.7619 41.2347 30.0377 40.1211 28.9433 39.6842L24.6298 37.9611ZM56.0369 37.9611L51.7233 39.6842C50.629 40.1211 49.9048 41.2347 49.9048 42.4789V43.1758C49.9048 43.7474 50.3397 44.2105 50.8757 44.2105C50.9661 44.2105 51.0565 44.1968 51.1416 44.1705L54.4246 43.1716C55.8231 42.7463 56.8813 41.5242 57.1663 40.0053L57.3301 39.1316C57.4353 38.5716 57.094 38.0263 56.5686 37.9147C56.3907 37.877 56.2054 37.8931 56.0369 37.9611ZM35.0116 43.1579C34.8383 43.1588 34.6678 43.2015 34.5149 43.2825C34.3621 43.3634 34.2315 43.48 34.1346 43.6222C34.0376 43.7645 33.9772 43.928 33.9586 44.0986C33.94 44.2691 33.9638 44.4416 34.0279 44.6011L34.5065 45.7895C34.8178 46.5654 35.3573 47.231 36.055 47.7001C36.7527 48.1693 37.5766 48.4204 38.4201 48.4211H42.2466C43.9694 48.4211 45.52 47.3789 46.1602 45.7895L46.6388 44.6011C46.7037 44.4417 46.7281 44.269 46.7098 44.0981C46.6916 43.9272 46.6313 43.7633 46.5342 43.6209C46.4371 43.4784 46.3061 43.3617 46.1529 43.281C45.9996 43.2003 45.8287 43.158 45.655 43.1579H35.0116Z" fill="#D2B37A"/>
<path fill-rule="evenodd" clip-rule="evenodd" d="M57.0365 29.4737H61.6032C61.8852 29.4737 62.1557 29.5846 62.3552 29.782C62.5546 29.9794 62.6667 30.2471 62.6667 30.5263V31.5789C62.6667 32.1373 62.4426 32.6728 62.0437 33.0676C61.6448 33.4624 61.1038 33.6842 60.5397 33.6842H58.7881L59.8984 36.3547C60.3217 37.3718 60.5395 38.4611 60.5397 39.5611V57.8947C60.5397 58.4531 60.3156 58.9886 59.9167 59.3834C59.5178 59.7782 58.9768 60 58.4127 60H56.7558C56.3092 60.0001 55.8739 59.8611 55.5116 59.6026C55.1493 59.3442 54.8784 58.9794 54.7373 58.56L53.4164 54.6368C53.3137 54.3319 53.1419 54.0544 52.914 53.8254C52.6862 53.5964 52.4084 53.4221 52.1019 53.3158C48.7636 52.1579 44.8415 51.5789 40.3333 51.5789C35.8252 51.5789 31.903 52.1579 28.5647 53.3158C28.2583 53.4221 27.9805 53.5964 27.7526 53.8254C27.5248 54.0544 27.3529 54.3319 27.2503 54.6368L25.9294 58.56C25.7883 58.9794 25.5174 59.3442 25.1551 59.6026C24.7928 59.8611 24.3575 60.0001 23.9109 60H22.254C21.6899 60 21.1489 59.7782 20.75 59.3834C20.3511 58.9886 20.127 58.4531 20.127 57.8947V39.5611C20.1271 38.4611 20.345 37.3718 20.7683 36.3547L21.8786 33.6842H20.127C19.5629 33.6842 19.0219 33.4624 18.623 33.0676C18.2241 32.6728 18 32.1373 18 31.5789V30.5263C18 30.2471 18.112 29.9794 18.3115 29.782C18.5109 29.5846 18.7814 29.4737 19.0635 29.4737H23.6301L26.2155 23.2589C26.6166 22.2948 27.2981 21.4703 28.1735 20.8901C29.0488 20.3099 30.0785 20.0001 31.132 20H49.5347C50.5882 20.0001 51.6179 20.3099 52.4932 20.8901C53.3685 21.4703 54.05 22.2948 54.4512 23.2589L57.0365 29.4737ZM24.6298 37.9611C24.4613 37.8931 24.276 37.877 24.0981 37.9147C23.5727 38.0274 23.2313 38.5716 23.3366 39.1316L23.5004 40.0053C23.7854 41.5242 24.8436 42.7463 26.2421 43.1716L29.524 44.1716C29.6105 44.1977 29.7005 44.2108 29.7909 44.2105C30.3269 44.2105 30.7619 43.7474 30.7619 43.1758V42.4789C30.7619 41.2347 30.0377 40.1211 28.9433 39.6842L24.6298 37.9611ZM56.0369 37.9611L51.7233 39.6842C50.629 40.1211 49.9048 41.2347 49.9048 42.4789V43.1758C49.9048 43.7474 50.3397 44.2105 50.8757 44.2105C50.9661 44.2105 51.0565 44.1968 51.1416 44.1705L54.4246 43.1716C55.8231 42.7463 56.8813 41.5242 57.1663 40.0053L57.3301 39.1316C57.4353 38.5716 57.094 38.0263 56.5686 37.9147C56.3907 37.877 56.2054 37.8931 56.0369 37.9611ZM35.0116 43.1579C34.8383 43.1588 34.6678 43.2015 34.5149 43.2825C34.3621 43.3634 34.2315 43.48 34.1346 43.6222C34.0376 43.7645 33.9772 43.928 33.9586 44.0986C33.94 44.2691 33.9638 44.4416 34.0279 44.6011L34.5065 45.7895C34.8178 46.5654 35.3573 47.231 36.055 47.7001C36.7527 48.1693 37.5766 48.4204 38.4201 48.4211H42.2466C43.9694 48.4211 45.52 47.3789 46.1602 45.7895L46.6388 44.6011C46.7037 44.4417 46.7281 44.269 46.7098 44.0981C46.6916 43.9272 46.6313 43.7633 46.5342 43.6209C46.4371 43.4784 46.3061 43.3617 46.1529 43.281C45.9996 43.2003 45.8287 43.158 45.655 43.1579H35.0116Z" fill="url(#paint0_linear_23_186)"/>
<g filter="url(#filter0_b_23_186)">
<circle cx="60" cy="60" r="13.3333" fill="#002C47" fill-opacity="0.3"/>
</g>
<g filter="url(#filter1_dd_23_186)">
<path d="M54 57.3334L51.3334 60L58 66.6667L68.6667 56L66 53.3334L58 61.3334L54 57.3334Z" fill="white"/>
</g>
<defs>
<filter id="filter0_b_23_186" x="40.6666" y="40.6666" width="38.6666" height="38.6666" filterUnits="userSpaceOnUse" color-interpolation-filters="sRGB">
<feFlood flood-opacity="0" result="BackgroundImageFix"/>
<feGaussianBlur in="BackgroundImageFix" stdDeviation="3"/>
<feComposite in2="SourceAlpha" operator="in" result="effect1_backgroundBlur_23_186"/>
<feBlend mode="normal" in="SourceGraphic" in2="effect1_backgroundBlur_23_186" result="shape"/>
</filter>
<filter id="filter1_dd_23_186" x="47.3334" y="51.3334" width="25.3334" height="21.3334" filterUnits="userSpaceOnUse" color-interpolation-filters="sRGB">
<feFlood flood-opacity="0" result="BackgroundImageFix"/>
<feColorMatrix in="SourceAlpha" type="matrix" values="0 0 0 0 0 0 0 0 0 0 0 0 0 0 0 0 0 0 127 0" result="hardAlpha"/>
<feOffset dy="2"/>
<feGaussianBlur stdDeviation="2"/>
<feComposite in2="hardAlpha" operator="out"/>
<feColorMatrix type="matrix" values="0 0 0 0 0 0 0 0 0 0 0 0 0 0 0 0 0 0 0.06 0"/>
<feBlend mode="normal" in2="BackgroundImageFix" result="effect1_dropShadow_23_186"/>
<feColorMatrix in="SourceAlpha" type="matrix" values="0 0 0 0 0 0 0 0 0 0 0 0 0 0 0 0 0 0 127 0" result="hardAlpha"/>
<feOffset dy="1"/>
<feGaussianBlur stdDeviation="1"/>
<feComposite in2="hardAlpha" operator="out"/>
<feColorMatrix type="matrix" values="0 0 0 0 0 0 0 0 0 0 0 0 0 0 0 0 0 0 0.1 0"/>
<feBlend mode="normal" in2="effect1_dropShadow_23_186" result="effect2_dropShadow_23_186"/>
<feBlend mode="normal" in="SourceGraphic" in2="effect2_dropShadow_23_186" result="shape"/>
</filter>
<linearGradient id="paint0_linear_23_186" x1="18" y1="20" x2="70.2464" y2="41.9971" gradientUnits="userSpaceOnUse">
<stop stop-color="#FFDC62"/>
<stop offset="1" stop-color="#D2B37A"/>
</linearGradient>
</defs>
</svg>
