<svg width="32" height="32" viewBox="0 0 32 32" fill="none" xmlns="http://www.w3.org/2000/svg">
<path id="Union" fill-rule="evenodd" clip-rule="evenodd" d="M15.8175 0L12.0049 3.8025L10.067 4.57971L4.58395 4.62992L4.58168 10.0503L3.81038 12.0248L0 15.8254L3.84108 19.6702L4.57893 22.0235V27.5308H10.0082L12.0216 28.1544L15.8629 32L19.6461 28.2135L21.9716 27.5308H27.5911L27.5535 21.9193L28.2169 19.6665L32 15.8791L28.1651 12.0404L27.5856 10.1755L27.5479 4.57568H21.9871L19.6494 3.83627L15.8175 0ZM15.8128 2.03461L13.4259 4.41531L15.8631 6.85529L18.2458 4.47022L15.8128 2.03461ZM6.85611 15.8793L4.47364 18.2645L2.03617 15.8245L4.42309 13.4436L6.85611 15.8793ZM5.82635 21.1949L5.29049 19.4858L7.98607 16.7874L9.56289 18.2316L9.571 21.1617L5.82635 21.1949ZM10.8295 22.4749V26.2803L12.2069 26.7067L14.887 24.0339L13.3592 22.5456L10.8295 22.4749ZM16.8025 24.0921L19.4729 26.7654L21.1578 26.2707L21.1597 22.4762H18.9291L16.8025 24.0921ZM22.4513 21.0938H26.2986L26.7702 19.4923L24.0344 16.7538L22.4508 18.3387L22.4513 21.0938ZM24.058 14.8769L26.7167 12.225L26.3399 11.0126H22.534L22.5396 13.1537L24.058 14.8769ZM21.158 9.59395L21.1599 5.82548L19.4646 5.28924L16.8106 7.94598L18.6381 9.5995L21.158 9.59395ZM14.9365 7.96634L12.2333 5.26059L10.9278 5.78419L10.9209 9.65235L13.2542 9.63188L14.9365 7.96634ZM9.60939 10.9566L5.7883 10.9134L5.26665 12.2491L7.94885 14.9339L9.5815 13.1367L9.60939 10.9566ZM27.5807 18.2645L29.9631 15.8793L27.5301 13.4436L25.1431 15.8245L27.5807 18.2645ZM26.1225 22.5361H22.5947L22.593 26.0885H26.1463L26.1225 22.5361ZM6.01701 9.46865L9.48617 9.45585L9.49242 6.02176L6.01852 6.05347L6.01701 9.46865ZM22.5949 6.01782L22.5931 9.57038H26.1465L26.1227 6.01782H22.5949ZM13.4258 27.521L15.8127 25.1405L18.2458 27.5761L15.8631 29.9612L13.4258 27.521ZM9.38885 22.6438L6.01962 22.6375V26.0885H9.38885V22.6438ZM11.0093 13.7043L11.0429 11.0879L13.8571 11.063L15.8911 9.04945L18.0879 11.037L21.099 11.0304L21.1059 13.6984L22.9543 15.796L21.0157 17.7362L21.0164 21.034H18.4556L15.8782 22.9926L13.9604 21.1248L11.0058 21.0422L10.9962 17.5988L9.0725 15.8368L11.0093 13.7043Z" fill="#D7B56D"/>
</svg>
