<svg width="72" height="72" viewBox="0 0 72 72" fill="none" xmlns="http://www.w3.org/2000/svg">
<path fill-rule="evenodd" clip-rule="evenodd" d="M5.78379 29.1892C5.78379 42.1158 16.2627 52.5946 29.1892 52.5946C42.1158 52.5946 52.5946 42.1158 52.5946 29.1892C52.5946 16.2627 42.1158 5.78379 29.1892 5.78379C25.5965 5.78379 22.1876 6.59464 19.1404 8.0452C11.2466 11.8029 5.78379 19.8561 5.78379 29.1892ZM29.1892 7.78379C25.9001 7.78379 22.7844 8.5256 20 9.85103C19.6427 10.0211 19.2908 10.2008 18.9448 10.3898L29.0053 15.6596L21.5405 25.6127L35.0269 31.8743L34.5407 43.5443L44.6586 43.9842C48.3358 40.1405 50.5946 34.9287 50.5946 29.1892C50.5946 17.3673 41.0112 7.78379 29.1892 7.78379ZM42.5731 45.8954C38.9077 48.8357 34.2539 50.5946 29.1892 50.5946C17.3673 50.5946 7.78379 41.0112 7.78379 29.1892C7.78379 21.9102 11.417 15.4798 16.9689 11.6126L25.9947 16.3404L18.4595 26.3873L32.9731 33.1257L32.4593 45.4557L42.5731 45.8954Z" fill="#B3B3B3"/>
<path fill-rule="evenodd" clip-rule="evenodd" d="M65.3562 70.8601L65.7228 71.1839C67.2496 72.3709 69.457 72.2631 70.8601 70.8601C72.3799 69.3403 72.3799 66.876 70.8601 65.3562L52.4004 46.8907C56.1507 41.9803 58.3784 35.8447 58.3784 29.1892C58.3784 13.0684 45.3098 0 29.1892 0C13.0684 0 0 13.0684 0 29.1892C0 45.3098 13.0684 58.3784 29.1892 58.3784C35.8447 58.3784 41.9803 56.1507 46.8907 52.4004L65.3562 70.8601ZM50.811 45.6768L49.749 47.0673L69.4456 66.7702C70.1844 67.5089 70.1846 68.7071 69.4459 69.4459C68.7774 70.1143 67.7302 70.1786 66.9914 69.636L66.7265 69.402L47.0673 49.749L45.6768 50.811C41.1028 54.3043 35.3909 56.3784 29.1892 56.3784C14.173 56.3784 2 44.2052 2 29.1892C2 14.173 14.173 2 29.1892 2C44.2052 2 56.3784 14.173 56.3784 29.1892C56.3784 35.3909 54.3043 41.1028 50.811 45.6768Z" fill="#B3B3B3"/>
</svg>
