<svg width="72" height="72" viewBox="0 0 72 72" fill="none" xmlns="http://www.w3.org/2000/svg">
<g id="Union">
<path fill-rule="evenodd" clip-rule="evenodd" d="M35.3638 22.4547L22.4549 35.3636C19.9943 37.8238 16.0055 37.8238 13.5453 35.3636L9.70048 31.5188C4.56975 26.3881 3.84471 18.5204 7.525 12.6162L1.05435 6.1456C-0.35145 4.73969 -0.35145 2.46031 1.05435 1.05441C2.46015 -0.351468 4.73968 -0.351468 6.14548 1.05441L12.6161 7.52498C18.5205 3.84452 26.3883 4.56963 31.5187 9.70021L35.3638 13.5451C37.8241 16.0054 37.8241 19.9944 35.3638 22.4547ZM4.73123 2.46858C4.10648 1.84381 3.09334 1.84381 2.46862 2.46856C1.84379 3.09344 1.84379 4.10657 2.46862 4.73144L10.0629 12.3256L9.22227 13.6742C6.02317 18.8064 6.65644 25.6464 11.1147 30.1045L13.798 32.7878L32.788 13.7978L30.1045 11.1145C25.6466 6.65643 18.8065 6.02296 13.6741 9.22224L12.3256 10.0628L4.73123 2.46858ZM34.1919 15.2223C35.6245 16.9118 35.5437 19.4463 33.9496 21.0405L21.0408 33.9492C19.4463 35.5435 16.9119 35.6242 15.2225 34.1917L34.1919 15.2223Z" fill="#B3B3B3"/>
<path fill-rule="evenodd" clip-rule="evenodd" d="M59.3838 64.475C53.4795 68.1553 45.6117 67.4302 40.4812 62.2999L34.0909 55.9091C33.0364 54.8547 33.0364 53.1454 34.0909 52.091L35.1453 51.0365L29.8544 45.7456C28.4486 44.3398 28.4486 42.0603 29.8544 40.6545C31.2602 39.2487 33.5397 39.2487 34.9455 40.6545L40.2364 45.9454L45.9451 40.2365L40.6544 34.9456C39.2486 33.5398 39.2486 31.2603 40.6544 29.8545C42.0602 28.4486 44.3397 28.4486 45.7456 29.8545L51.0363 35.1454L52.0907 34.091L52.105 34.0768C53.1605 33.0365 54.8594 33.0413 55.9091 34.091L62.2996 40.4813C67.4301 45.6117 68.1552 53.4795 64.4749 59.3839L70.9456 65.8545C72.3515 67.2603 72.3515 69.5398 70.9456 70.9456C69.5397 72.3514 67.2603 72.3514 65.8544 70.9456L59.3838 64.475ZM42.0686 33.5314L48.7735 40.2365L40.2365 48.7739L33.5313 42.0687C32.9065 41.444 31.8934 41.444 31.2686 42.0687C30.6438 42.6935 30.6438 43.7066 31.2686 44.3314L37.9737 51.0365L35.5051 53.5052C35.2317 53.7786 35.2317 54.2215 35.5051 54.4949L41.8954 60.8856C46.3534 65.3435 53.1935 65.9769 58.3258 62.7777L59.6744 61.9372L67.2686 69.5314C67.8934 70.1562 68.9066 70.1562 69.5314 69.5314C70.1562 68.9067 70.1562 67.8935 69.5314 67.2688L61.9371 59.6745L62.7777 58.3259C65.9768 53.1935 65.3434 46.3534 60.8854 41.8956L54.4949 35.5052C54.2215 35.2318 53.7783 35.2318 53.505 35.5051L51.0364 37.9739L44.3314 31.2687C43.7065 30.6438 42.6934 30.6439 42.0687 31.2686C41.4439 31.8934 41.4439 32.9067 42.0686 33.5314Z" fill="#B3B3B3"/>
<path d="M49.4834 19.6158C49.0396 19.2871 48.9463 18.6608 49.275 18.217L57.0253 7.75374L62.7826 17.0939L69.1039 8.11224C69.4217 7.66059 70.0455 7.55215 70.4972 7.87001C70.9488 8.18787 71.0573 8.81168 70.7394 9.26332L62.6721 20.726L56.8734 11.3189L50.8822 19.4075C50.5535 19.8513 49.9272 19.9446 49.4834 19.6158Z" fill="#B3B3B3"/>
<path d="M16.6116 48.903C17.0437 48.559 17.1151 47.9298 16.7711 47.4978C16.4271 47.0657 15.798 46.9943 15.3659 47.3383L6.46576 54.4239L12.4474 62.4168L4.04754 64.5564C3.51235 64.6927 3.189 65.2371 3.32533 65.7723C3.46166 66.3075 4.00603 66.6309 4.54123 66.4945L15.8427 63.6157L9.23001 54.7796L16.6116 48.903Z" fill="#B3B3B3"/>
</g>
</svg>
